<?xml version="1.0" encoding="UTF-8" standalone="no"?>
<!-- Created with Inkscape (http://www.inkscape.org/) -->

<svg
   version="1.1"
   id="svg1"
   width="666.66669"
   height="1333.3333"
   viewBox="0 0 666.66669 1333.3333"
   sodipodi:docname="43148cbbf332c09ceab22414b2c9ebb4.svg"
   inkscape:version="1.3.2 (091e20ef0f, 2023-11-25)"
   xmlns:inkscape="http://www.inkscape.org/namespaces/inkscape"
   xmlns:sodipodi="http://sodipodi.sourceforge.net/DTD/sodipodi-0.dtd"
   xmlns="http://www.w3.org/2000/svg"
   xmlns:svg="http://www.w3.org/2000/svg">
  <defs
     id="defs1" />
  <sodipodi:namedview
     id="namedview1"
     pagecolor="#ffffff"
     bordercolor="#000000"
     borderopacity="0.25"
     inkscape:showpageshadow="2"
     inkscape:pageopacity="0.0"
     inkscape:pagecheckerboard="0"
     inkscape:deskcolor="#d1d1d1"
     inkscape:zoom="0.61350004"
     inkscape:cx="334.14831"
     inkscape:cy="666.66663"
     inkscape:window-width="1912"
     inkscape:window-height="1024"
     inkscape:window-x="4"
     inkscape:window-y="52"
     inkscape:window-maximized="1"
     inkscape:current-layer="g1" />
  <g
     inkscape:groupmode="layer"
     inkscape:label="Image"
     id="g1">
    <path
       style="fill:#000000"
       d="m 6.8505859e-5,1318.6197 v -14.7136 L 3.0000685,1305.4949 c 6.82442,3.6142 43.1998905,24.369 45.6300105,26.0352 2.25204,1.544 -1.0534,1.8032 -23,1.8032 H 6.8505859e-5 Z M 104.73341,1332.1264 c 1.58264,-1.508 85.442,-49.4598 86.49653,-49.4598 0.42357,0 0.77014,11.4 0.77014,25.3333 v 25.3334 h -44.26667 c -26.4635,0 -43.75724,-0.4854 -43,-1.2069 z m 113.65576,-24.128 c -0.214,-13.9341 0.0361,-25.3341 0.55585,-25.3333 1.12353,0 85.15174,47.8245 86.98839,49.5075 0.72116,0.6608 -17.77356,1.1607 -42.94424,1.1607 h -44.21092 z m 142.34424,24.1601 c 1.46402,-1.3578 85.74566,-49.4919 86.6591,-49.4919 0.33416,0 0.60757,11.4 0.60757,25.3333 v 25.3334 h -44.26666 c -25.59702,0 -43.73245,-0.4955 -43.00001,-1.1748 z m 113.93334,-24.1586 c 0,-13.9333 0.33906,-25.3333 0.75346,-25.3333 1.03586,0 84.93633,47.9727 86.51321,49.4666 0.75205,0.7125 -16.7179,1.2001 -43,1.2001 h -44.26667 z m 141.44445,24.801 c 0.8765,-0.8398 28.81711,-17.0268 40.22222,-23.3021 l 10.33334,-5.6857 v 14.7601 14.7601 H 641.1112 c -14.05556,0 -25.30556,-0.2396 -25,-0.5324 z M 32.000069,1291.8596 0.66673851,1273.5907 v -14.9351 -14.9351 L 31.801989,1225.7733 c 17.1244,-9.871 31.38161,-17.701 31.68271,-17.3999 0.3011,0.3011 0.39023,23.3192 0.19808,51.1513 l -0.34937,50.6038 z m 58.24914,-32.193 c 0.34734,-27.3167 0.73554,-50.1232 0.86267,-50.6811 0.12714,-0.558 19.829741,10.242 43.783561,24 32.19526,18.4914 43.14633,25.3946 41.99519,26.4721 -2.31071,2.1631 -84.633291,49.8757 -86.054691,49.8757 -0.72494,0 -0.96252,-20.1118 -0.58673,-49.6667 z m 184.813381,24.6242 c -23.61561,-13.7266 -42.95266,-25.2575 -42.97122,-25.6242 -0.0303,-0.5992 83.80471,-49.3743 86.70447,-50.4445 0.70346,-0.2596 1.20424,20.6711 1.20424,50.3334 0,27.9278 -0.45,50.7587 -1,50.7353 -0.55,-0.023 -20.32187,-11.2733 -43.93749,-25 z m 71.60416,-25.6242 c 0,-28.0019 0.5176,-50.689 1.15087,-50.4445 3.05666,1.1805 86.78813,49.865 86.75823,50.4445 -0.0333,0.6463 -84.00051,49.5511 -86.61055,50.4444 -0.8276,0.2833 -1.29855,-18.0117 -1.29855,-50.4444 z m 186,26.2537 c -22.73333,-13.3557 -42.1321,-24.792 -43.10837,-25.4141 -1.25421,-0.7991 1.48432,-3.0042 9.33334,-7.5152 6.1096,-3.5113 25.77921,-14.8249 43.71024,-25.1413 17.93103,-10.3164 32.70016,-18.628 32.82027,-18.4701 0.12012,0.1578 0.55479,22.937 0.96593,50.6203 0.56625,38.1277 0.36734,50.3176 -0.82028,50.2684 -0.86228,-0.036 -20.16779,-10.9923 -42.90113,-24.348 z m 70,-26.3964 c 0,-40.1102 0.35096,-50.6704 1.66667,-50.1498 0.91667,0.3627 15.16667,8.4507 31.66667,17.9734 l 30,17.3139 v 14.9398 14.9398 l -30.66667,17.8826 c -16.86667,9.8355 -31.11667,17.8887 -31.66667,17.8961 -0.55,0.01 -1,-22.8506 -1,-50.7958 z m -453.79884,-47.0628 c -23.35603,-13.489 -42.99362,-25.0536 -43.6391,-25.6991 -0.67591,-0.6759 17.33254,-11.9892 42.4655,-26.6779 l 43.6391,-25.5042 0.36181,25.965 c 0.199,14.2807 0.199,37.3222 0,51.2034 l -0.36181,25.2384 z m 69.49633,-26.7646 c -0.20029,-28.2504 0.0519,-51.2141 0.56041,-51.0305 4.61115,1.6652 87.34893,51.219 86.65641,51.9007 -0.77204,0.7601 -77.71262,45.584 -84.55016,49.2572 -2.15984,1.1602 -2.32507,-1.9457 -2.66666,-50.1274 z m 186.30251,26.4295 c -23.46667,-13.5426 -43.08986,-25.0394 -43.60709,-25.5483 -0.51722,-0.5089 18.68278,-12.3572 42.66667,-26.3297 l 43.60709,-25.4044 0.36181,25.8331 c 0.199,14.2083 0.199,37.1369 0,50.9527 l -0.36181,25.1195 z m 70,-26.3648 v -51.4819 l 6.40659,3.6937 c 36.89803,21.2731 81.58324,47.7503 81.54322,48.3166 -0.0417,0.5897 -22.76184,13.7725 -80.13917,46.4986 l -7.81064,4.4549 z M 6.8505859e-5,1185.3091 c 0,-16.12 0.215400004141,-29.3092 0.478660004141,-29.3092 0.26326,0 10.61326049,5.8921 23.00000049,13.0935 12.38674,7.2014 23.63339,13.71 24.99255,14.4635 2.1167,1.1735 0.39524,2.5756 -12,9.7736 -7.95916,4.622 -19.42121,11.3026 -25.47121,14.8457 L 6.8505859e-5,1214.6183 Z M 641.00405,1199.6393 c -13.01449,-7.5016 -23.66449,-14.0264 -23.66667,-14.4995 -0.004,-0.7945 47.40283,-29.1399 48.73527,-29.1399 0.32676,0 0.59411,12.9 0.59411,28.6667 0,15.7667 -0.45,28.6544 -1,28.6394 -0.55,-0.015 -11.64822,-6.165 -24.66271,-13.6667 z M 31.333409,1143.393 0.66673851,1125.6898 l -0.3758,-14.7163 -0.3758,-14.7163 29.04247049,-16.5941 c 15.97335,-9.1268 30.39246,-17.3058 32.04246,-18.1756 l 3,-1.5814 v 50.7136 c 0,27.8925 -0.45,50.6602 -1,50.595 -0.55,-0.065 -14.8,-8.0849 -31.66666,-17.8217 z m 58,-32.8375 c 0,-31.2169 0.48416,-50.6066 1.25683,-50.3333 2.76752,0.9786 87.992931,49.8239 88.015671,50.4444 0.0269,0.7341 -87.150601,50.6667 -88.459121,50.6667 -0.44736,0 -0.81338,-22.85 -0.81338,-50.7778 z m 186.333331,25.8248 c -24.01666,-13.7127 -43.6597,-25.258 -43.65119,-25.6563 0.009,-0.3982 19.65851,-11.933 43.66667,-25.6328 l 43.65119,-24.9087 0.36213,25.242 c 0.19916,13.8832 0.19916,36.6374 0,50.565 l -0.36213,25.323 z m 71.00001,-25.6769 v -50.8579 l 7.76716,4.4106 c 51.62298,29.3138 80.21327,45.8728 80.22209,46.4633 0.009,0.5748 -53.3931,31.5057 -81.95071,47.4668 l -6.03854,3.375 z m 185.01547,25.5901 c -24.00815,-13.7281 -43.63897,-25.2602 -43.62403,-25.6269 0.0253,-0.621 85.2554,-49.4674 88.01839,-50.4444 0.77268,-0.2733 1.25684,19.1164 1.25684,50.3333 0,27.9278 -0.45,50.7599 -1,50.738 -0.55,-0.022 -20.64304,-11.2719 -44.6512,-25 z m 70.98453,-25.6738 v -50.7136 l 3,1.5814 c 1.65,0.8698 16.06911,9.0488 32.04247,18.1756 l 29.04247,16.5941 -0.3758,14.7141 -0.3758,14.7141 -31.14078,17.8239 c -17.12744,9.8032 -31.37744,17.824 -31.66667,17.824 -0.28924,0 -0.52589,-22.8211 -0.52589,-50.7136 z m -454.66667,-47.9313 c -23.83334,-13.8932 -43.33334,-25.6504 -43.33334,-26.127 0,-0.4767 19.5,-12.1391 43.33334,-25.9164 l 43.33333,-25.04985 0.36181,25.95735 c 0.199,14.2766 0.199,37.3061 0,51.1768 l -0.36181,25.2194 z m 70.66666,-25.9772 v -51.59545 l 4.33334,2.65359 c 4.46427,2.73377 33.84419,19.74826 64.33333,37.25676 9.53334,5.4745 17.78464,10.3645 18.33624,10.8667 0.5516,0.5021 -17.4484,11.6457 -40,24.7634 -22.5516,13.1178 -42.35291,24.7055 -44.00291,25.7505 l -3,1.8999 z m 185.0276,25.538 c -24.00149,-13.9786 -43.30589,-25.7531 -42.89865,-26.1657 0.40723,-0.4126 20.04482,-11.9035 43.63907,-25.5353 l 42.89866,-24.78519 0.36181,25.87339 c 0.199,14.2304 0.199,37.1583 0,50.9509 l -0.36181,25.0774 z m 70.97241,-25.6306 v -51.53875 l 5.66667,3.30158 c 3.11666,1.81587 22.46666,13.01997 43,24.89787 20.53333,11.878 37.81576,22.0617 38.4054,22.6305 0.777,0.7496 -56.72926,35.2835 -86.07207,51.6884 -0.55,0.3075 -1,-22.6333 -1,-50.9796 z M 6.8505859e-5,1036.6666 c 0,-15.7667 0.323070004141,-28.6667 0.717940004141,-28.6667 1.03452999,0 50.05924049,28.3454 49.63592049,28.6988 -1.43399,1.1972 -48.9035805,28.6346 -49.54073049,28.6346 -0.44722,0 -0.813130004141,-12.9 -0.813130004141,-28.6667 z M 642.00009,1051.8714 c -12.46667,-7.337 -23.46529,-13.8107 -24.44139,-14.3859 -1.18644,-0.6992 6.41856,-5.7595 22.94247,-15.2657 13.59446,-7.8209 25.04309,-14.2199 25.4414,-14.2199 0.3983,0 0.72419,12.9 0.72419,28.6667 0,15.7667 -0.45,28.6393 -1,28.6058 -0.55,-0.033 -11.2,-6.0639 -23.66667,-13.401 z M 31.333409,995.5406 0.66673851,977.77334 l -0.37491,-14.66304 -0.37491,-14.66304 31.29805049,-18.22367 c 17.21392,-10.02302 31.63263,-18.22368 32.04157,-18.22368 0.40895,0 0.74353,22.8 0.74353,50.66667 0,27.86666 -0.45,50.66102 -1,50.65402 -0.55,-0.01 -14.8,-8.008 -31.66666,-17.78 z m 59.33333,-12.55092 c 0,-16.81118 -0.39368,-39.66118 -0.87484,-50.77777 -0.56027,-12.94423 -0.40362,-20.212 0.43564,-20.212 1.2662,0 85.517401,48.66832 87.339181,50.45212 0.71967,0.70466 -80.961471,49.02877 -85.627841,50.65897 -0.78323,0.2737 -1.27214,-11.3027 -1.27214,-30.12132 z m 184.325411,5.34241 c -32.98447,-19.0874 -42.61764,-25.23786 -41.33333,-26.38997 1.92951,-1.73088 84.61365,-49.94221 85.65268,-49.94221 0.37872,0 0.68858,22.8 0.68858,50.66667 0,27.86666 -0.45,50.64122 -1,50.61002 -0.55,-0.031 -20.35357,-11.2562 -44.00793,-24.94451 z m 71.6746,-25.66551 c 0,-27.86667 0.28171,-50.66667 0.62603,-50.66667 0.82447,0 82.00252,47.32992 85.09446,49.61334 2.17715,1.60784 1.76661,2.12142 -4.66667,5.83802 -48.90702,28.25429 -79.77716,45.88203 -80.34994,45.88203 -0.38713,0 -0.70388,-22.80006 -0.70388,-50.66672 z m 184.41658,25.57617 c -23.60422,-13.70023 -42.50422,-25.31252 -42,-25.8051 0.87817,-0.8579 40.30468,-23.93804 71.96875,-42.13025 8.2786,-4.75637 15.27749,-8.42134 15.55309,-8.14438 0.839,0.84314 -0.95805,101.17678 -1.81042,101.07978 -0.43706,-0.05 -20.1072,-11.2998 -43.71142,-25.00005 z m 71.58342,-25.57617 c 0,-27.86667 0.33459,-50.66667 0.74353,-50.66667 0.40895,0 14.82766,8.20066 32.04158,18.22368 l 31.29805,18.22367 -0.37491,14.69891 -0.37491,14.69891 -30.66667,17.7407 c -16.86667,9.75742 -31.11667,17.74222 -31.66667,17.74412 -0.55,0 -1,-22.79666 -1,-50.66332 z m -454.57741,-47.788 C 124.3051,901.19531 104.80509,889.47499 104.756,888.83342 c -0.0491,-0.64157 19.56074,-12.42146 43.57741,-26.17755 l 43.66667,-25.01106 v 51.17755 c 0,28.14765 -0.15,51.12295 -0.33334,51.05622 -0.18333,-0.0667 -19.79316,-11.31674 -43.5774,-25 z m 326.57741,-25.78004 c 0,-42.43099 0.29888,-50.60257 1.82931,-50.01528 1.41652,0.54357 85.8681,48.5205 87.13169,49.4995 0.16189,0.12543 -19.78811,11.70417 -44.33333,25.73054 l -44.62767,25.5025 z m -256.00001,-0.28931 c 0,-27.57845 0.30789,-50.14264 0.6842,-50.14264 2.35067,0 87.31466,49.85861 86.42083,50.71351 -1.35,1.29121 -82.43268,47.77884 -85.16056,48.82562 -1.68249,0.64563 -1.94447,-6.00945 -1.94447,-49.39649 z m 185.33334,25.73103 c -23.1,-13.22864 -42.49726,-24.5392 -43.10503,-25.13457 -0.89141,-0.87324 84.0421,-50.7391 86.42084,-50.7391 0.37631,0 0.68419,22.49999 0.68419,49.99999 0,27.5 -0.45,49.9833 -1,49.96288 -0.55,-0.0204 -19.9,-10.86055 -43,-24.0892 z M 6.8505859e-5,888.66658 c 0,-15.76666 0.234460004141,-28.66666 0.521020004141,-28.66666 0.72765999,0 47.89561049,26.85502 49.24789049,28.03923 0.90703,0.79429 -46.8348705,29.2941 -49.07247049,29.2941 -0.38304,0 -0.696440004141,-12.9 -0.696440004141,-28.66667 z M 641.11434,903.59408 c -12.95383,-7.47679 -23.63774,-14.10316 -23.74203,-14.72527 -0.16065,-0.95833 46.90271,-28.86889 48.67931,-28.86889 0.33832,0 0.61514,12.9 0.61514,28.66666 0,15.76667 -0.45,28.63404 -1,28.59417 -0.55,-0.0399 -11.59859,-6.18988 -24.55242,-13.66667 z m -609.489641,-56.09061 -31.70871049,-18.5186 0.37538,-14.6599 0.37537,-14.6599 31.07884049,-17.97596 c 17.09336,-9.88678 31.35057,-17.70422 31.6827,-17.37209 0.33213,0.33213 0.44665,23.35164 0.2545,51.15446 l -0.34937,50.55058 z m 58.67247,-32.50355 c 0.39825,-27.68333 0.85636,-50.49536 1.01802,-50.69341 0.16166,-0.19804 19.848671,10.90196 43.748921,24.66667 36.14589,20.81726 43.10737,25.29301 41.38827,26.60983 -1.13669,0.87069 -14.15347,8.61242 -28.92617,17.20383 -14.77271,8.59141 -33.28799,19.42902 -41.14508,24.08358 -7.857091,4.65456 -14.853161,8.46283 -15.546831,8.46283 -0.78326,0 -0.98681,-19.07488 -0.53713,-50.33333 z m 185.888001,25.72654 c -22.99819,-13.46933 -42.323,-24.99778 -42.94401,-25.61879 -0.86245,-0.86244 79.64888,-48.76344 85.52768,-50.88552 0.73899,-0.26676 1.23124,19.85638 1.23124,50.33333 0,27.92777 -0.45,50.75142 -1,50.71921 -0.55,-0.0322 -19.81671,-11.07891 -42.81491,-24.54823 z m 70.48158,-26.05987 c 0,-27.86667 0.35456,-50.66667 0.78792,-50.66667 0.70935,0 24.77687,13.80921 70.93432,40.69993 12.15267,7.07999 15.94374,9.89394 14.66667,10.88644 -2.61521,2.03246 -84.73605,49.74696 -85.61887,49.74696 -0.42352,0 -0.77004,-22.8 -0.77004,-50.66666 z m 186.66667,26.66608 c -22.36667,-13.07634 -41.71902,-24.57562 -43.00523,-25.55395 -2.07975,-1.58194 1.8883,-4.21349 35.85554,-23.7788 21.00676,-12.1 40.80911,-23.3615 44.00523,-25.02555 l 5.81113,-3.02556 v 30.48023 c 0,16.76413 0.39368,39.57562 0.87484,50.69222 0.73234,16.91976 0.56946,20.19363 -1,20.09928 -1.03116,-0.062 -20.17484,-10.81153 -42.54151,-23.88787 z m 69.33333,-26.66608 c 0,-27.86667 0.45,-50.64939 1,-50.62827 0.55,0.0211 14.8,8.04699 31.66667,17.83529 l 30.66667,17.79689 0.37563,14.68494 0.37563,14.68495 -31.14248,18.14643 c -17.12836,9.98054 -31.5474,18.14643 -32.0423,18.14643 -0.4949,0 -0.89982,-22.8 -0.89982,-50.66666 z M 148.87658,767.38248 c -23.35125,-13.43625 -43.01632,-24.98904 -43.70016,-25.67287 -0.76888,-0.76889 8.30925,-6.79177 23.79016,-15.78357 13.76842,-7.99713 33.4335,-19.50543 43.70016,-25.574 l 18.66667,-11.03378 0.36181,26.09579 c 0.199,14.35269 0.199,37.41379 0,51.24688 l -0.36181,25.15109 z m 69.48767,-26.67831 c -0.2003,-28.2546 0.0445,-51.22176 0.54401,-51.03813 4.98151,1.8314 87.48118,51.13372 86.74405,51.83879 -0.54206,0.51849 -17.78557,10.63857 -38.3189,22.48907 -20.53333,11.8505 -39.86946,23.01695 -42.96916,24.81432 l -5.63583,3.26796 z m 186.3025,26.40175 c -23.46667,-13.55517 -43.10082,-25.06347 -43.63145,-25.574 -0.78739,-0.75755 84.40871,-51.53199 86.46721,-51.53199 0.60535,0 0.73835,100.88328 0.13377,101.46189 -0.16657,0.15943 -19.50286,-10.80073 -42.96953,-24.3559 z m 70,-26.49234 v -51.54372 l 5,2.95122 c 2.75,1.62317 22.59496,13.20761 44.09992,25.74319 35.16395,20.49764 38.85498,22.97216 36.66667,24.58193 -1.73864,1.27899 -68.01469,39.78287 -84.76659,49.24619 -0.55,0.3107 -1,-22.62976 -1,-50.97881 z M 6.8505859e-5,740.66658 c 0,-15.76666 0.261000004141,-28.66666 0.579990004141,-28.66666 0.47789999,0 48.53016049,27.69007 49.82347049,28.71073 0.50989,0.40239 -48.3066305,28.6226 -49.51260049,28.6226 -0.48997,0 -0.890860004141,-12.9 -0.890860004141,-28.66667 z M 640.26619,755.15513 c -13.42031,-7.77253 -24.22031,-14.27802 -24,-14.45666 1.35974,-1.10252 49.17284,-28.69855 49.72333,-28.69855 0.37248,0 0.67724,12.9 0.67724,28.66666 0,15.76667 -0.45,28.65626 -1,28.64355 -0.55,-0.0127 -11.98026,-6.38247 -25.40057,-14.155 z M 31.666739,699.23159 6.8505859e-5,681.1505 V 666.70249 652.25448 L 7.0000685,648.24002 C 10.850069,646.03206 25.100069,637.88476 38.666739,630.13491 l 24.66667,-14.09064 0.36212,25.31116 c 0.19917,13.92113 0.19917,36.70653 0,50.63421 l -0.36212,25.32304 z m 57.66667,-32.67612 c 0,-34.47963 0.44396,-50.62978 1.3832,-50.3167 2.6862,0.8954 87.856851,49.77059 87.876271,50.42782 0.0222,0.75166 -87.068281,50.66666 -88.401981,50.66666 -0.47162,0 -0.85749,-22.85 -0.85749,-50.77778 z m 186.333331,25.7638 c -24.01666,-13.71654 -43.66553,-25.24971 -43.66414,-25.62926 0.001,-0.37955 19.65139,-11.89135 43.66667,-25.58179 l 43.66414,-24.89169 0.36213,25.22503 c 0.19916,13.87376 0.19916,36.60819 0,50.52095 l -0.36213,25.29593 z m 71.00001,-25.69804 V 615.8455 l 7.76716,4.41054 c 50.69391,28.78627 80.21292,45.86421 80.22005,46.41055 0.008,0.5827 -71.62273,42.06161 -83.52232,48.36518 l -4.46489,2.36519 z m 185.02191,25.64531 c -24.00461,-13.71331 -43.64084,-25.23329 -43.63606,-25.59995 0.008,-0.63067 85.2551,-49.50216 87.99059,-50.44445 0.81661,-0.28129 1.29023,18.19495 1.29023,50.33333 0,27.92778 -0.45,50.74776 -1,50.71107 -0.55,-0.0367 -20.64014,-11.28669 -44.64476,-25 z m 70.97809,-25.71107 c 0,-27.92777 0.46855,-50.57777 1.04122,-50.33333 0.57267,0.24445 14.99181,8.44973 32.04252,18.23397 l 31.0013,17.78952 -0.37585,14.6243 -0.37585,14.6243 -31.17201,17.91951 c -17.14461,9.85573 -31.39461,17.91951 -31.66667,17.91951 -0.27206,0 -0.49466,-22.85 -0.49466,-50.77778 z M 148.00008,618.54496 c -23.83334,-13.88661 -43.27769,-25.69013 -43.20968,-26.23004 0.068,-0.53991 19.56802,-12.19217 43.33334,-25.89392 l 43.20967,-24.91227 0.36181,26.00056 c 0.199,14.30031 0.199,37.31435 0,51.14231 l -0.36181,25.14175 z m 70.36421,-25.93741 c 0.20032,-28.26642 0.80032,-51.12872 1.33333,-50.80512 0.53302,0.32361 19.86912,11.50241 42.96912,24.84179 23.1,13.33938 42.42346,24.65488 42.94101,25.14557 0.71698,0.67975 -82.14021,50.27895 -86.66294,51.87736 -0.5196,0.18363 -0.78084,-22.79319 -0.58052,-51.0596 z m 185.37044,25.61279 c -23.97927,-14.00712 -43.28232,-25.78689 -42.89566,-26.17728 1.12969,-1.14058 86.46349,-50.44466 86.79721,-50.14961 0.45696,0.40402 0.54885,101.03944 0.0926,101.44383 -0.21752,0.1928 -20.0149,-11.10982 -43.99418,-25.11694 z m 70.93202,-25.46895 c 0,-49.53601 0.0938,-51.46177 2.44421,-50.20384 7.37792,3.94854 83.7208,48.44592 84.59534,49.30743 0.57176,0.56323 -16.7981,11.41721 -38.59968,24.11995 -21.80158,12.70275 -41.61937,24.26421 -44.03955,25.69215 l -4.40032,2.59625 z M 6.8505859e-5,592.66659 c 0,-15.76667 0.387000004141,-28.66666 0.859990004141,-28.66666 1.18116999,0 50.02121049,28.24748 49.53217049,28.64779 -1.39858,1.14479 -49.0828205,28.68554 -49.66635049,28.68554 -0.39919,0 -0.725810004141,-12.9 -0.725810004141,-28.66667 z M 657.33342,616.79894 c -4.03333,-2.4546 -15.02682,-8.95518 -24.42998,-14.44573 l -17.09664,-9.98282 24.56998,-14.18523 c 13.5135,-7.80188 24.95699,-14.18523 25.42998,-14.18523 0.473,0 0.86,12.89999 0.86,28.66666 0,15.76667 -0.45,28.6506 -1,28.63097 -0.55,-0.0196 -4.3,-2.04402 -8.33334,-4.49862 z M 31.333409,551.49488 0.66673851,533.74329 l -0.37555,-14.71669 -0.37556,-14.71669 31.27180049,-18.15499 c 17.19949,-9.98524 31.61849,-18.15499 32.04222,-18.15499 0.42373,0 0.77042,22.8 0.77042,50.66667 0,27.86666 -0.45,50.64713 -1,50.62327 -0.55,-0.0239 -14.8,-8.03161 -31.66666,-17.79499 z m 59.33333,-12.50518 c 0,-16.81118 -0.39368,-39.66118 -0.87484,-50.77778 -0.59009,-13.63323 -0.42465,-20.21199 0.5083,-20.21199 1.34748,0 85.463371,48.5876 87.279301,50.41487 0.68993,0.69424 -80.074111,48.41655 -85.797031,50.69624 -0.61365,0.24444 -1.11573,-13.31016 -1.11573,-30.12134 z m 184.381481,5.27178 c -32.16843,-18.66977 -42.54552,-25.29447 -41.33334,-26.38704 1.97095,-1.77645 84.44694,-49.87451 85.52217,-49.87451 0.41967,0 0.76303,22.8 0.76303,50.66667 0,27.86666 -0.45,50.63436 -1,50.59488 -0.55,-0.0395 -20.32834,-11.28948 -43.95186,-25 z m 71.61853,-25.59488 c 0,-27.86667 0.34336,-50.66667 0.76302,-50.66667 1.0816,0 83.56328,48.10701 85.51215,49.87451 1.20218,1.09031 -9.30504,7.77412 -41.59428,26.45882 -23.76153,13.75 -43.53536,25 -43.94184,25 -0.40648,0 -0.73905,-22.8 -0.73905,-50.66666 z m 184.43041,25.55992 c -23.59661,-13.69129 -42.49661,-25.29737 -42,-25.79129 1.86652,-1.85642 85.90229,-50.4353 87.24714,-50.4353 0.96173,0 1.12926,6.38137 0.53063,20.21199 -0.48116,11.1166 -0.87484,33.9166 -0.87484,50.66667 0,16.75007 -0.45,30.40663 -1,30.34792 -0.55,-0.0587 -20.30632,-11.3087 -43.90293,-24.99999 z m 71.56959,-25.55992 c 0,-27.86667 0.3953,-50.66667 0.87843,-50.66667 0.48313,0 14.90186,8.19835 32.04162,18.21856 l 31.1632,18.21856 -0.37495,14.64518 -0.37496,14.64518 -30.66667,17.77536 c -16.86667,9.77644 -31.11667,17.78776 -31.66667,17.80292 -0.55,0.0152 -1,-22.77243 -1,-50.63909 z M 148.17272,470.81654 c -23.73838,-13.70755 -43.16769,-25.48718 -43.17626,-26.17695 -0.009,-0.68977 19.56375,-12.48645 43.49403,-26.21485 l 43.50959,-24.96072 v 51.26796 c 0,28.19738 -0.15,51.20933 -0.33334,51.13767 -0.18333,-0.0717 -19.75564,-11.34556 -43.49402,-25.05311 z m 70.49402,-26.00728 c 0,-27.57846 0.45,-50.1183 1,-50.08855 1.83346,0.0992 85.78378,48.59481 86.06076,49.71476 0.22517,0.91048 -80.05877,47.79489 -85.39409,49.86864 -1.31527,0.51122 -1.66667,-9.92412 -1.66667,-49.49485 z m 184.86833,25.34044 c -23.35575,-13.39537 -42.37953,-24.909 -42.27507,-25.58583 0.16017,-1.03771 80.14311,-47.6054 85.07342,-49.53146 1.31533,-0.51385 1.66666,9.91907 1.66666,49.49155 0,27.57845 -0.45,50.10627 -1,50.06181 -0.55,-0.0445 -20.10925,-11.04069 -43.46501,-24.43607 z m 71.13168,-26.02748 v -50.54438 l 43.53345,24.87772 c 23.94339,13.68274 43.59339,25.41586 43.66666,26.0736 0.12513,1.12324 -84.0457,50.05479 -86.20011,50.11124 -0.55,0.0144 -1,-22.71877 -1,-50.51818 z M 6.8505859e-5,444.77772 c 0,-15.82778 0.295180004141,-28.77778 0.655950004141,-28.77778 0.94570999,0 50.01072049,28.14774 50.01072049,28.69028 0,0.41155 -47.0414605,27.37369 -49.5864705,28.42083 C 0.48615851,473.3555 6.8505859e-5,460.6055 6.8505859e-5,444.77772 Z M 640.89013,459.3497 c -13.07715,-7.58554 -24.05692,-14.07219 -24.39949,-14.41476 -0.56574,-0.56574 47.98621,-28.935 49.52017,-28.935 0.36077,0 0.65595,12.9 0.65595,28.66667 0,15.76667 -0.45,28.62354 -1,28.57083 -0.55,-0.0527 -11.69949,-6.30219 -24.77663,-13.88774 z m -609.931621,-56.30412 -31.04157049,-18.1621 0.3749,-14.64384 0.3749,-14.64385 L 31.333409,337.8152 c 16.86666,-9.77932 31.11666,-17.78839 31.66666,-17.79792 0.55,-0.01 1,22.78267 1,50.64933 0,27.86667 -0.45,50.63841 -1,50.60387 -0.55,-0.0345 -14.9687,-8.23574 -32.04156,-18.2249 z m 59.32016,-32.04563 c 0.41114,-27.68333 0.89934,-50.51603 1.08489,-50.73932 0.18555,-0.22329 19.860761,10.87671 43.722691,24.66667 23.86192,13.78996 42.97923,25.47714 42.4829,25.97151 -1.55545,1.54933 -85.861131,50.43447 -86.977611,50.43447 -0.58322,0 -0.72401,-22.65 -0.31287,-50.33333 z m 185.835011,25.62261 c -23.03752,-13.49081 -42.38252,-25.02486 -42.98889,-25.63123 -0.60636,-0.60636 4.74252,-4.46107 11.8864,-8.56601 7.14389,-4.10493 26.62202,-15.32993 43.28473,-24.94444 16.66272,-9.61451 30.61272,-17.48093 31.00001,-17.48093 0.38728,0 0.70415,22.8 0.70415,50.66666 0,27.86667 -0.45,50.62572 -1,50.57568 -0.55,-0.05 -19.84888,-11.12892 -42.8864,-24.61973 z m 70.55307,-25.95595 c 0,-27.86666 0.31687,-50.66666 0.70415,-50.66666 0.38728,0 14.33729,7.86642 31,17.48093 16.66272,9.61451 36.1463,20.84263 43.29684,24.95138 10.00949,5.75152 12.61727,7.81707 11.33334,8.97679 -1.91444,1.72923 -84.58871,49.92423 -85.64061,49.92423 -0.38155,0 -0.69372,-22.8 -0.69372,-50.66667 z m 185.085,25.53619 c -23.23659,-13.67824 -42.52936,-25.16952 -42.87282,-25.53619 -0.34346,-0.36666 18.8856,-11.94935 42.73125,-25.73931 23.84564,-13.78996 43.50753,-24.88996 43.69308,-24.66667 0.18555,0.22329 0.67376,23.05599 1.0849,50.73932 0.56654,38.1469 0.36794,50.30174 -0.82028,50.20285 -0.86228,-0.0718 -20.57955,-11.32177 -43.81613,-25 z m 70.915,-25.53619 c 0,-27.86666 0.45464,-50.66666 1.0103,-50.66666 0.55566,0 14.80566,8.01688 31.66667,17.81528 l 30.65637,17.81528 0.37493,14.62943 0.37492,14.62944 -31.25305,18.22195 c -17.18918,10.02207 -31.6079,18.22195 -32.0416,18.22195 -0.43369,0 -0.78854,-22.8 -0.78854,-50.66667 z M 168.66674,334.70082 c -53.07061,-30.56061 -63.96852,-37.12823 -63.41485,-38.21694 0.32183,-0.63283 19.82183,-12.38648 43.33333,-26.11924 l 42.74819,-24.96864 0.36181,26.05694 c 0.199,14.33131 0.199,37.36172 0,51.17869 l -0.36181,25.12175 z m 50,-38.0342 V 245.1158 l 4.33334,2.624 c 2.38333,1.44319 13.33333,7.84825 24.33333,14.23346 46.80816,27.17089 59.175,34.715 58.28085,35.55293 -0.52113,0.48837 -18.34752,10.90161 -39.61418,23.14053 -21.26667,12.23892 -40.61667,23.44467 -43,24.90165 l -4.33334,2.64907 z m 216.00001,43.62257 c -6.96667,-4.03899 -26.16667,-15.10405 -42.66667,-24.58904 -16.5,-9.48498 -30.44094,-17.66869 -30.97988,-18.18602 -0.53893,-0.51733 18.66107,-12.39973 42.66667,-26.40535 l 43.64655,-25.46475 0.36181,25.93292 c 0.199,14.26311 0.199,37.21058 0,50.99439 l -0.36181,25.06146 z m 40,-43.70736 v -51.51194 l 4.33333,2.52468 c 67.05555,39.06783 83.57347,49.0263 82.7083,49.8639 -0.86817,0.8405 -77.40619,45.45943 -84.7083,49.3819 -2.20358,1.18371 -2.33333,-1.61095 -2.33333,-50.25854 z M 6.8505859e-5,296.66663 c 0,-15.76667 0.326620004141,-28.66667 0.725810004141,-28.66667 0.59898999,0 48.34212049,27.58832 49.69978049,28.71897 0.23407,0.19493 -6.96593,4.54005 -16,9.65582 -9.03407,5.11577 -20.02559,11.47271 -24.42559,14.12654 -4.4000005,2.65383 -8.4500005,4.82669 -9.0000005,4.82858 C 0.45006851,325.33187 6.8505859e-5,312.43329 6.8505859e-5,296.66663 Z M 640.2932,311.08422 c -13.40546,-7.76321 -24.20546,-14.251 -24,-14.41732 1.43028,-1.15782 49.07282,-28.66694 49.64775,-28.66694 0.39919,0 0.72581,12.9 0.72581,28.66667 0,15.76666 -0.45,28.63648 -1,28.59958 -0.55,-0.0369 -11.9681,-6.41879 -25.37356,-14.18199 z M 31.624149,255.20644 -0.08510149,237.10192 l 0.37592,-14.7032 0.37592,-14.70319 31.19542049,-17.87458 c 17.15748,-9.83102 31.41479,-17.65522 31.6829,-17.3871 0.26812,0.26811 0.33018,23.07515 0.13791,50.6823 l -0.34956,50.19482 z m 57.70926,-32.4287 c 0,-27.92777 0.3742,-50.77777 0.83156,-50.77777 1.31826,0 88.474511,49.92512 88.450791,50.66666 -0.0202,0.63063 -85.273831,49.50204 -87.997741,50.44444 -0.80922,0.27998 -1.28461,-18.34668 -1.28461,-50.33333 z m 186.348811,25.46428 c -24.00816,-13.6998 -43.65816,-25.23456 -43.66667,-25.63281 -0.009,-0.39825 19.63453,-11.94357 43.65119,-25.65627 l 43.66667,-24.93217 0.36213,25.32293 c 0.19916,13.92761 0.19916,36.68186 0,50.56499 l -0.36213,25.24205 z m 70.98453,-25.61217 v -50.85788 l 6.03854,3.37501 c 28.55761,15.96115 81.9593,46.89207 81.95071,47.46687 -0.009,0.59045 -28.59911,17.14948 -80.22209,46.46332 l -7.76716,4.41054 z m 185.04874,25.63504 c -23.98986,-13.71238 -43.63015,-25.23159 -43.64509,-25.59826 -0.0296,-0.72672 87.16927,-50.66666 88.4678,-50.66666 0.43737,0 0.79522,22.8 0.79522,50.66666 0,27.86667 -0.45,50.63588 -1,50.59826 -0.55,-0.0376 -20.62807,-11.28763 -44.61793,-25 z m 70.95126,-25.55135 c 0,-27.89246 0.23665,-50.71357 0.52589,-50.71357 0.28923,0 14.53923,8.02077 31.66667,17.82394 l 31.14078,17.82394 0.3758,14.71408 0.3758,14.71407 -29.04247,16.59416 c -15.97336,9.12678 -30.39247,17.30579 -32.04247,18.17556 l -3,1.5814 z M 147.68028,174.24097 c -24.00923,-14.00744 -43.16444,-25.95677 -42.56714,-26.55407 0.59729,-0.59729 20.2412,-12.15942 43.65313,-25.69361 l 42.56714,-24.607629 0.36181,26.062109 c 0.199,14.33416 0.199,37.35693 0,51.1617 l -0.36181,25.09959 z m 70.68401,-25.63345 c 0.20032,-28.26639 0.80032,-51.137309 1.33333,-50.824263 0.53302,0.313046 18.06912,10.463293 38.96912,22.556093 46.74917,27.0492 48.20686,27.91406 47.7236,28.31493 -0.78801,0.65367 -87.71154,51.34569 -88.04523,51.34617 -0.18977,2.8e-4 -0.18114,-23.12655 0.0192,-51.39293 z m 185.35697,25.51529 c -23.98669,-13.98753 -43.18669,-25.85054 -42.66667,-26.36225 0.52002,-0.5117 20.14549,-12.01067 43.61216,-25.55326 l 42.66667,-24.622904 0.36181,25.962744 c 0.199,14.27951 0.199,37.22282 0,50.98514 l -0.36181,25.0224 z m 70.94549,-25.49229 c 0,-28.30003 0.45,-51.211245 1,-50.913802 10.24307,5.539502 84.14624,48.441052 85.36441,49.554912 1.32607,1.21254 -7.26715,6.78911 -39.25371,25.47369 -22.5233,13.15672 -42.33728,24.69047 -44.03107,25.63055 l -3.07963,1.70925 z M 6.8505859e-5,148.66662 c 0,-15.76667 0.400890004141,-28.66667 0.890860004141,-28.66667 1.20596999,0 50.02249049,28.22021 49.51260049,28.6226 -1.29331,1.02066 -49.3455705,28.71073 -49.82347049,28.71073 -0.31899,0 -0.579990004141,-12.9 -0.579990004141,-28.66666 z M 660.00009,174.28463 c -2.56667,-1.55525 -13.53467,-8.04492 -24.37333,-14.4215 l -19.70666,-11.59377 24.48246,-14.1347 c 13.46536,-7.77409 24.88336,-14.13471 25.37333,-14.13471 0.48998,0 0.89087,12.9 0.89087,28.66667 0,15.76666 -0.45,28.61696 -1,28.5562 -0.55,-0.0607 -3.1,-1.38294 -5.66667,-2.93819 z M 31.333409,107.43118 0.66673851,89.649819 0.29107851,74.968927 -0.08457149,60.288035 21.624419,47.610842 c 11.93994,-6.972457 26.35899,-15.427057 32.04232,-18.788001 l 10.33333,-6.110807 v 51.310628 c 0,28.220848 -0.45,51.283458 -1,51.250248 -0.55,-0.0332 -14.8,-8.06199 -31.66666,-17.84173 z m 59.33333,-18.557138 c 0,-20.052586 -0.39118,-42.852585 -0.86929,-50.666664 -0.62089,-10.147733 -0.44081,-14.207415 0.63024,-14.207415 1.19973,0 73.236681,41.283226 85.338621,48.90621 3.0097,1.895797 2.44908,2.330226 -19.33333,14.981593 -40.94642,23.781954 -64.761841,37.445534 -65.267031,37.445534 -0.27457,0 -0.49921,-16.40667 -0.49921,-36.459258 z M 275.07063,100.2428 C 243.00393,81.636327 232.54506,74.962658 233.7373,73.86855 c 2.01919,-1.852997 84.25362,-49.868587 85.40798,-49.868587 0.47014,0 0.8548,22.799998 0.8548,50.666663 0,27.866674 -0.45,50.625944 -1,50.576174 -0.55,-0.0498 -20.31825,-11.29977 -43.92945,-25 z m 71.59612,-25.687285 c 0,-33.207305 0.46065,-50.623985 1.33127,-50.33333 2.54901,0.850985 86.53975,49.782474 86.58772,50.444441 0.0266,0.366667 -4.29434,3.150219 -9.60201,6.185672 -5.30767,3.035452 -24.82248,14.285452 -43.36623,25.000002 -18.54375,10.71455 -33.99375,19.481 -34.33333,19.481 -0.33958,0 -0.61742,-22.85 -0.61742,-50.777785 z M 530.8796,99.975309 c -41.66722,-24.24374 -43.01532,-25.155018 -40,-27.038828 14.1214,-8.822296 84.02271,-48.936518 85.27465,-48.936518 1.21282,0 1.38681,5.35361 0.72189,22.212947 -0.48183,12.217121 -0.87605,35.01712 -0.87605,50.666664 0,15.649546 -0.45,28.393276 -1,28.319386 -0.55,-0.0739 -20.40422,-11.42452 -44.12049,-25.223651 z m 71.78715,-25.308683 c 0,-27.866665 0.45,-50.660584 1,-50.653155 0.55,0.0074 14.8,8.060691 31.66667,17.896135 l 30.66667,17.882626 v 14.953175 14.953176 l -30.66667,17.757567 c -16.86667,9.76666 -31.11667,17.78447 -31.66667,17.81735 -0.55,0.0329 -1,-22.7402 -1,-50.606874 z M 148.00008,26.54031 c -23.1,-13.228644 -42.57,-24.6119396 -43.26667,-25.2962128 -0.78436,-0.77040793 15.58863,-1.244133235156 43,-1.244133235156 h 44.26667 V 25.333296 c 0,13.933332 -0.45,25.316628 -1,25.296213 -0.55,-0.02042 -19.90001,-10.860555 -43,-24.089199 z m 70.38909,-1.205537 0.38908,-25.334809035156 h 44.21092 c 25.80648,0 43.68361,0.492699145156 42.94424,1.183556135156 -1.86933,1.7466815 -85.7071,49.4828529 -86.90846,49.4845849 -0.56368,8.12e-4 -0.84978,-11.399187 -0.63578,-25.333332 z M 403.7746,26.256742 C 380.55059,12.915514 361.10059,1.5499639 360.55238,0.99996391 360.00417,0.44996394 379.45564,-3.6035156e-5 403.77786,-3.6035156e-5 h 44.22222 V 25.333296 c 0,13.933332 -0.45,25.298882 -1,25.256778 -0.55,-0.0421 -20.00146,-10.992104 -43.22548,-24.333332 z m 70.89215,-0.780794 V -3.6035156e-5 h 44.26667 c 26.76621,0 43.7659,0.481741185156 43,1.218544035156 -1.45068,1.3955625 -82.36716,47.853303 -85.3222,48.987259 -1.66193,0.637742 -1.94447,-2.955636 -1.94447,-24.729819 z M 6.8505859e-5,14.66663 V -3.6035156e-5 H 25.630079 c 22.00145,0 25.25767,0.256528935156 23,1.811966935156 C 45.202129,4.1736498 1.2348585,29.333296 0.53563851,29.333296 c -0.29456,0 -0.535570004141,-6.6 -0.535570004141,-14.666666 z M 640.79449,15.239935 C 627.66474,7.6095697 616.61474,1.0590631 616.23893,0.68325371 615.86312,0.30744435 627.05564,-3.6035156e-5 641.1112,-3.6035156e-5 h 25.55556 V 14.66663 c 0,8.066666 -0.45,14.617173 -1,14.556681 -0.55,-0.06049 -11.74252,-6.353011 -24.87227,-13.983376 z"
       id="path1" />
  </g>
</svg>
