solid OpenSCAD_Model
  facet normal 1 -0 0
    outer loop
      vertex 4.7 0 9
      vertex 4.7 14.8 0
      vertex 4.7 14.8 9
    endloop
  endfacet
  facet normal 1 0 0
    outer loop
      vertex 4.7 14.8 0
      vertex 4.7 0 9
      vertex 4.7 0 0
    endloop
  endfacet
  facet normal 0 0 1
    outer loop
      vertex 0 13.6 9
      vertex -0.999999 14.2 9
      vertex -0.999999 13.6 9
    endloop
  endfacet
  facet normal 0 0 1
    outer loop
      vertex 1.6 2.6 9
      vertex 0.6 2.6 9
      vertex 1.6 0.599999 9
    endloop
  endfacet
  facet normal 0 0 1
    outer loop
      vertex 4.7 14.8 9
      vertex 4.1 14.2 9
      vertex 4.7 0 9
    endloop
  endfacet
  facet normal 0 0 1
    outer loop
      vertex 4.7 14.8 9
      vertex 1.6 14.2 9
      vertex 4.1 14.2 9
    endloop
  endfacet
  facet normal 0 0 1
    outer loop
      vertex 1.6 14.2 9
      vertex 0.6 13.6 9
      vertex 1.6 13.6 9
    endloop
  endfacet
  facet normal 0 0 1
    outer loop
      vertex 0.6 13.6 9
      vertex 0 13.6 9
      vertex 0.6 2.6 9
    endloop
  endfacet
  facet normal 0 0 1
    outer loop
      vertex 1.6 14.2 9
      vertex 0 13.6 9
      vertex 0.6 13.6 9
    endloop
  endfacet
  facet normal 0 0 1
    outer loop
      vertex 1.6 14.2 9
      vertex -0.999999 14.2 9
      vertex 0 13.6 9
    endloop
  endfacet
  facet normal 0 0 1
    outer loop
      vertex 4.7 14.8 9
      vertex -0.999999 14.2 9
      vertex 1.6 14.2 9
    endloop
  endfacet
  facet normal -0 0 1
    outer loop
      vertex -4.1 14.8 9
      vertex -0.999999 14.2 9
      vertex 4.7 14.8 9
    endloop
  endfacet
  facet normal 0 0 1
    outer loop
      vertex -3.5 14.2 9
      vertex -4.1 14.8 9
      vertex -3.5 0.599999 9
    endloop
  endfacet
  facet normal 0 0 1
    outer loop
      vertex -0.999999 14.2 9
      vertex -4.1 14.8 9
      vertex -3.5 14.2 9
    endloop
  endfacet
  facet normal -0 0 1
    outer loop
      vertex 4.1 0.599999 9
      vertex 4.7 0 9
      vertex 4.1 14.2 9
    endloop
  endfacet
  facet normal -0 0 1
    outer loop
      vertex 1.6 0.599999 9
      vertex 4.7 0 9
      vertex 4.1 0.599999 9
    endloop
  endfacet
  facet normal 0 0 1
    outer loop
      vertex 0 2.6 9
      vertex 0.6 2.6 9
      vertex 0 13.6 9
    endloop
  endfacet
  facet normal -0 0 1
    outer loop
      vertex 0 2.6 9
      vertex 1.6 0.599999 9
      vertex 0.6 2.6 9
    endloop
  endfacet
  facet normal 0 0 1
    outer loop
      vertex -0.999999 0.599999 9
      vertex 0 2.6 9
      vertex -0.999999 2.6 9
    endloop
  endfacet
  facet normal 0 0 1
    outer loop
      vertex 0 2.6 9
      vertex -0.999999 0.599999 9
      vertex 1.6 0.599999 9
    endloop
  endfacet
  facet normal -0 0 1
    outer loop
      vertex -0.999999 0.599999 9
      vertex 4.7 0 9
      vertex 1.6 0.599999 9
    endloop
  endfacet
  facet normal 0 0 1
    outer loop
      vertex -4.1 0 9
      vertex -0.999999 0.599999 9
      vertex -3.5 0.599999 9
    endloop
  endfacet
  facet normal 0 0 1
    outer loop
      vertex -0.999999 0.599999 9
      vertex -4.1 0 9
      vertex 4.7 0 9
    endloop
  endfacet
  facet normal 0 0 1
    outer loop
      vertex -4.1 0 9
      vertex -3.5 0.599999 9
      vertex -4.1 14.8 9
    endloop
  endfacet
  facet normal 0 0 -1
    outer loop
      vertex -4.1 0 0
      vertex 4.7 14.8 0
      vertex 4.7 0 0
    endloop
  endfacet
  facet normal -0 0 -1
    outer loop
      vertex 4.7 14.8 0
      vertex -4.1 0 0
      vertex -4.1 14.8 0
    endloop
  endfacet
  facet normal -1 0 0
    outer loop
      vertex 0 2.6 0.599999
      vertex 0 13.6 9
      vertex 0 13.6 0.599999
    endloop
  endfacet
  facet normal -1 -0 0
    outer loop
      vertex 0 13.6 9
      vertex 0 2.6 0.599999
      vertex 0 2.6 9
    endloop
  endfacet
  facet normal 0 1 -0
    outer loop
      vertex 4.7 14.8 0
      vertex -4.1 14.8 9
      vertex 4.7 14.8 9
    endloop
  endfacet
  facet normal 0 1 0
    outer loop
      vertex -4.1 14.8 9
      vertex 4.7 14.8 0
      vertex -4.1 14.8 0
    endloop
  endfacet
  facet normal 0 -1 0
    outer loop
      vertex -4.1 0 0
      vertex 4.7 0 9
      vertex -4.1 0 9
    endloop
  endfacet
  facet normal 0 -1 -0
    outer loop
      vertex 4.7 0 9
      vertex -4.1 0 0
      vertex 4.7 0 0
    endloop
  endfacet
  facet normal -1 0 0
    outer loop
      vertex 4.1 0.599999 0.599999
      vertex 4.1 14.2 9
      vertex 4.1 14.2 0.599999
    endloop
  endfacet
  facet normal -1 -0 0
    outer loop
      vertex 4.1 14.2 9
      vertex 4.1 0.599999 0.599999
      vertex 4.1 0.599999 9
    endloop
  endfacet
  facet normal -0 0 1
    outer loop
      vertex 0.6 13.6 0.599999
      vertex 1.6 2.6 0.599999
      vertex 1.6 13.6 0.599999
    endloop
  endfacet
  facet normal 0 0 1
    outer loop
      vertex 1.6 2.6 0.599999
      vertex 0.6 13.6 0.599999
      vertex 0.6 2.6 0.599999
    endloop
  endfacet
  facet normal 0 0 1
    outer loop
      vertex 1.6 13.6 0.599999
      vertex 4.1 14.2 0.599999
      vertex 1.6 14.2 0.599999
    endloop
  endfacet
  facet normal 0 0 1
    outer loop
      vertex 1.6 2.6 0.599999
      vertex 4.1 14.2 0.599999
      vertex 1.6 13.6 0.599999
    endloop
  endfacet
  facet normal 0 0 1
    outer loop
      vertex 4.1 14.2 0.599999
      vertex 1.6 2.6 0.599999
      vertex 4.1 0.599999 0.599999
    endloop
  endfacet
  facet normal 0 0 1
    outer loop
      vertex 4.1 0.599999 0.599999
      vertex 1.6 2.6 0.599999
      vertex 1.6 0.599999 0.599999
    endloop
  endfacet
  facet normal 0 -1 0
    outer loop
      vertex 1.6 14.2 0.599999
      vertex 4.1 14.2 9
      vertex 1.6 14.2 9
    endloop
  endfacet
  facet normal 0 -1 -0
    outer loop
      vertex 4.1 14.2 9
      vertex 1.6 14.2 0.599999
      vertex 4.1 14.2 0.599999
    endloop
  endfacet
  facet normal 0 1 -0
    outer loop
      vertex 4.1 0.599999 0.599999
      vertex 1.6 0.599999 9
      vertex 4.1 0.599999 9
    endloop
  endfacet
  facet normal 0 1 0
    outer loop
      vertex 1.6 0.599999 9
      vertex 4.1 0.599999 0.599999
      vertex 1.6 0.599999 0.599999
    endloop
  endfacet
  facet normal 1 -0 0
    outer loop
      vertex 1.6 0.599999 9
      vertex 1.6 2.6 0.599999
      vertex 1.6 2.6 9
    endloop
  endfacet
  facet normal 1 0 0
    outer loop
      vertex 1.6 2.6 0.599999
      vertex 1.6 0.599999 9
      vertex 1.6 0.599999 0.599999
    endloop
  endfacet
  facet normal 0 1 -0
    outer loop
      vertex 1.6 2.6 0.599999
      vertex 0.6 2.6 9
      vertex 1.6 2.6 9
    endloop
  endfacet
  facet normal 0 1 0
    outer loop
      vertex 0.6 2.6 9
      vertex 1.6 2.6 0.599999
      vertex 0.6 2.6 0.599999
    endloop
  endfacet
  facet normal 1 -0 0
    outer loop
      vertex 1.6 13.6 9
      vertex 1.6 14.2 0.599999
      vertex 1.6 14.2 9
    endloop
  endfacet
  facet normal 1 0 0
    outer loop
      vertex 1.6 14.2 0.599999
      vertex 1.6 13.6 9
      vertex 1.6 13.6 0.599999
    endloop
  endfacet
  facet normal 0 -1 0
    outer loop
      vertex 0.6 13.6 0.599999
      vertex 1.6 13.6 9
      vertex 0.6 13.6 9
    endloop
  endfacet
  facet normal 0 -1 -0
    outer loop
      vertex 1.6 13.6 9
      vertex 0.6 13.6 0.599999
      vertex 1.6 13.6 0.599999
    endloop
  endfacet
  facet normal -1 0 0
    outer loop
      vertex -4.1 0 0
      vertex -4.1 14.8 9
      vertex -4.1 14.8 0
    endloop
  endfacet
  facet normal -1 -0 0
    outer loop
      vertex -4.1 14.8 9
      vertex -4.1 0 0
      vertex -4.1 0 9
    endloop
  endfacet
  facet normal 1 -0 0
    outer loop
      vertex 0.6 2.6 9
      vertex 0.6 13.6 0.599999
      vertex 0.6 13.6 9
    endloop
  endfacet
  facet normal 1 0 0
    outer loop
      vertex 0.6 13.6 0.599999
      vertex 0.6 2.6 9
      vertex 0.6 2.6 0.599999
    endloop
  endfacet
  facet normal 1 -0 0
    outer loop
      vertex -3.5 0.599999 9
      vertex -3.5 14.2 0.599999
      vertex -3.5 14.2 9
    endloop
  endfacet
  facet normal 1 0 0
    outer loop
      vertex -3.5 14.2 0.599999
      vertex -3.5 0.599999 9
      vertex -3.5 0.599999 0.599999
    endloop
  endfacet
  facet normal -0 0 1
    outer loop
      vertex -3.5 14.2 0.599999
      vertex -0.999999 13.6 0.599999
      vertex -0.999999 14.2 0.599999
    endloop
  endfacet
  facet normal 0 0 1
    outer loop
      vertex -0.999999 13.6 0.599999
      vertex -3.5 14.2 0.599999
      vertex -0.999999 2.6 0.599999
    endloop
  endfacet
  facet normal 0 0 1
    outer loop
      vertex -3.5 0.599999 0.599999
      vertex -0.999999 2.6 0.599999
      vertex -3.5 14.2 0.599999
    endloop
  endfacet
  facet normal 0 0 1
    outer loop
      vertex -0.999999 2.6 0.599999
      vertex -3.5 0.599999 0.599999
      vertex -0.999999 0.599999 0.599999
    endloop
  endfacet
  facet normal -0 0 1
    outer loop
      vertex -0.999999 13.6 0.599999
      vertex 0 2.6 0.599999
      vertex 0 13.6 0.599999
    endloop
  endfacet
  facet normal 0 0 1
    outer loop
      vertex 0 2.6 0.599999
      vertex -0.999999 13.6 0.599999
      vertex -0.999999 2.6 0.599999
    endloop
  endfacet
  facet normal 0 -1 0
    outer loop
      vertex -3.5 14.2 0.599999
      vertex -0.999999 14.2 9
      vertex -3.5 14.2 9
    endloop
  endfacet
  facet normal 0 -1 -0
    outer loop
      vertex -0.999999 14.2 9
      vertex -3.5 14.2 0.599999
      vertex -0.999999 14.2 0.599999
    endloop
  endfacet
  facet normal 0 1 -0
    outer loop
      vertex -0.999999 0.599999 0.599999
      vertex -3.5 0.599999 9
      vertex -0.999999 0.599999 9
    endloop
  endfacet
  facet normal 0 1 0
    outer loop
      vertex -3.5 0.599999 9
      vertex -0.999999 0.599999 0.599999
      vertex -3.5 0.599999 0.599999
    endloop
  endfacet
  facet normal -1 0 0
    outer loop
      vertex -0.999999 0.599999 0.599999
      vertex -0.999999 2.6 9
      vertex -0.999999 2.6 0.599999
    endloop
  endfacet
  facet normal -1 -0 0
    outer loop
      vertex -0.999999 2.6 9
      vertex -0.999999 0.599999 0.599999
      vertex -0.999999 0.599999 9
    endloop
  endfacet
  facet normal 0 1 -0
    outer loop
      vertex 0 2.6 0.599999
      vertex -0.999999 2.6 9
      vertex 0 2.6 9
    endloop
  endfacet
  facet normal 0 1 0
    outer loop
      vertex -0.999999 2.6 9
      vertex 0 2.6 0.599999
      vertex -0.999999 2.6 0.599999
    endloop
  endfacet
  facet normal -1 0 0
    outer loop
      vertex -0.999999 13.6 0.599999
      vertex -0.999999 14.2 9
      vertex -0.999999 14.2 0.599999
    endloop
  endfacet
  facet normal -1 -0 0
    outer loop
      vertex -0.999999 14.2 9
      vertex -0.999999 13.6 0.599999
      vertex -0.999999 13.6 9
    endloop
  endfacet
  facet normal 0 -1 0
    outer loop
      vertex -0.999999 13.6 0.599999
      vertex 0 13.6 9
      vertex -0.999999 13.6 9
    endloop
  endfacet
  facet normal 0 -1 -0
    outer loop
      vertex 0 13.6 9
      vertex -0.999999 13.6 0.599999
      vertex 0 13.6 0.599999
    endloop
  endfacet
  facet normal 1 -0 0
    outer loop
      vertex 9.4 -4 2
      vertex 9.4 -3 0
      vertex 9.4 -3 2
    endloop
  endfacet
  facet normal 1 0 0
    outer loop
      vertex 9.4 -3 0
      vertex 9.4 -4 2
      vertex 9.4 -4 0
    endloop
  endfacet
  facet normal -0 0 1
    outer loop
      vertex 0 -3 2
      vertex 9.4 -4 2
      vertex 9.4 -3 2
    endloop
  endfacet
  facet normal 0 0 1
    outer loop
      vertex 9.4 -4 2
      vertex 0 -3 2
      vertex 0 -4 2
    endloop
  endfacet
  facet normal 0 0 -1
    outer loop
      vertex 0 -4 0
      vertex 9.4 -3 0
      vertex 9.4 -4 0
    endloop
  endfacet
  facet normal -0 0 -1
    outer loop
      vertex 9.4 -3 0
      vertex 0 -4 0
      vertex 0 -3 0
    endloop
  endfacet
  facet normal -1 0 0
    outer loop
      vertex 0 -4 0
      vertex 0 -3 2
      vertex 0 -3 0
    endloop
  endfacet
  facet normal -1 -0 0
    outer loop
      vertex 0 -3 2
      vertex 0 -4 0
      vertex 0 -4 2
    endloop
  endfacet
  facet normal 0 1 -0
    outer loop
      vertex 9.4 -3 0
      vertex 0 -3 2
      vertex 9.4 -3 2
    endloop
  endfacet
  facet normal 0 1 0
    outer loop
      vertex 0 -3 2
      vertex 9.4 -3 0
      vertex 0 -3 0
    endloop
  endfacet
  facet normal 0 -1 0
    outer loop
      vertex 0 -4 0
      vertex 9.4 -4 2
      vertex 0 -4 2
    endloop
  endfacet
  facet normal 0 -1 -0
    outer loop
      vertex 9.4 -4 2
      vertex 0 -4 0
      vertex 9.4 -4 0
    endloop
  endfacet
endsolid OpenSCAD_Model
