solid OpenSCAD_Model
  facet normal 1 -0 0
    outer loop
      vertex 7 7 1
      vertex 7 43 0
      vertex 7 43 1
    endloop
  endfacet
  facet normal 1 0 0
    outer loop
      vertex 7 43 0
      vertex 7 7 1
      vertex 7 7 0
    endloop
  endfacet
  facet normal 0 0 1
    outer loop
      vertex 75 28 1
      vertex 43 7 1
      vertex 57 7 1
    endloop
  endfacet
  facet normal 0 -0 1
    outer loop
      vertex 43 7 1
      vertex 75 28 1
      vertex 25 28 1
    endloop
  endfacet
  facet normal 0 0 1
    outer loop
      vertex 100 50 1
      vertex 93 43 1
      vertex 100 0 1
    endloop
  endfacet
  facet normal 0 0 1
    outer loop
      vertex 100 50 1
      vertex 7 43 1
      vertex 93 43 1
    endloop
  endfacet
  facet normal 0 0 1
    outer loop
      vertex 7 43 1
      vertex 0 50 1
      vertex 7 7 1
    endloop
  endfacet
  facet normal -0 0 1
    outer loop
      vertex 0 50 1
      vertex 7 43 1
      vertex 100 50 1
    endloop
  endfacet
  facet normal -0 0 1
    outer loop
      vertex 93 7 1
      vertex 100 0 1
      vertex 93 43 1
    endloop
  endfacet
  facet normal -0 0 1
    outer loop
      vertex 57 7 1
      vertex 100 0 1
      vertex 93 7 1
    endloop
  endfacet
  facet normal -0 0 1
    outer loop
      vertex 43 7 1
      vertex 100 0 1
      vertex 57 7 1
    endloop
  endfacet
  facet normal 0 0 1
    outer loop
      vertex 0 0 1
      vertex 43 7 1
      vertex 7 7 1
    endloop
  endfacet
  facet normal 0 0 1
    outer loop
      vertex 43 7 1
      vertex 0 0 1
      vertex 100 0 1
    endloop
  endfacet
  facet normal 0 0 1
    outer loop
      vertex 0 0 1
      vertex 7 7 1
      vertex 0 50 1
    endloop
  endfacet
  facet normal 0 0 -1
    outer loop
      vertex 100 0 0
      vertex 93 7 0
      vertex 100 50 0
    endloop
  endfacet
  facet normal 0 0 -1
    outer loop
      vertex 100 0 0
      vertex 57 7 0
      vertex 93 7 0
    endloop
  endfacet
  facet normal 0 0 -1
    outer loop
      vertex 100 0 0
      vertex 43 7 0
      vertex 57 7 0
    endloop
  endfacet
  facet normal 0 0 -1
    outer loop
      vertex 0 0 0
      vertex 43 7 0
      vertex 100 0 0
    endloop
  endfacet
  facet normal -0 0 -1
    outer loop
      vertex 7 7 0
      vertex 0 0 0
      vertex 7 43 0
    endloop
  endfacet
  facet normal -0 0 -1
    outer loop
      vertex 43 7 0
      vertex 0 0 0
      vertex 7 7 0
    endloop
  endfacet
  facet normal 0 0 -1
    outer loop
      vertex 93 43 0
      vertex 100 50 0
      vertex 93 7 0
    endloop
  endfacet
  facet normal 0 0 -1
    outer loop
      vertex 7 43 0
      vertex 100 50 0
      vertex 93 43 0
    endloop
  endfacet
  facet normal 0 0 -1
    outer loop
      vertex 7 43 0
      vertex 0 50 0
      vertex 100 50 0
    endloop
  endfacet
  facet normal 0 0 -1
    outer loop
      vertex 0 50 0
      vertex 7 43 0
      vertex 0 0 0
    endloop
  endfacet
  facet normal 0 0 -1
    outer loop
      vertex 43 7 0
      vertex 75 28 0
      vertex 57 7 0
    endloop
  endfacet
  facet normal -0 0 -1
    outer loop
      vertex 75 28 0
      vertex 43 7 0
      vertex 25 28 0
    endloop
  endfacet
  facet normal -1 0 0
    outer loop
      vertex 0 0 0
      vertex 0 50 1
      vertex 0 50 0
    endloop
  endfacet
  facet normal -1 -0 0
    outer loop
      vertex 0 50 1
      vertex 0 0 0
      vertex 0 0 1
    endloop
  endfacet
  facet normal 0 1 -0
    outer loop
      vertex 100 50 0
      vertex 0 50 1
      vertex 100 50 1
    endloop
  endfacet
  facet normal 0 1 0
    outer loop
      vertex 0 50 1
      vertex 100 50 0
      vertex 0 50 0
    endloop
  endfacet
  facet normal 0 -1 0
    outer loop
      vertex 0 0 0
      vertex 100 0 1
      vertex 0 0 1
    endloop
  endfacet
  facet normal 0 -1 -0
    outer loop
      vertex 100 0 1
      vertex 0 0 0
      vertex 100 0 0
    endloop
  endfacet
  facet normal 1 -0 0
    outer loop
      vertex 100 0 1
      vertex 100 50 0
      vertex 100 50 1
    endloop
  endfacet
  facet normal 1 0 0
    outer loop
      vertex 100 50 0
      vertex 100 0 1
      vertex 100 0 0
    endloop
  endfacet
  facet normal -1 0 0
    outer loop
      vertex 93 7 0
      vertex 93 43 1
      vertex 93 43 0
    endloop
  endfacet
  facet normal -1 -0 0
    outer loop
      vertex 93 43 1
      vertex 93 7 0
      vertex 93 7 1
    endloop
  endfacet
  facet normal 0 1 -0
    outer loop
      vertex 43 7 0
      vertex 7 7 1
      vertex 43 7 1
    endloop
  endfacet
  facet normal 0 1 0
    outer loop
      vertex 7 7 1
      vertex 43 7 0
      vertex 7 7 0
    endloop
  endfacet
  facet normal 0 1 -0
    outer loop
      vertex 93 7 0
      vertex 57 7 1
      vertex 93 7 1
    endloop
  endfacet
  facet normal 0 1 0
    outer loop
      vertex 57 7 1
      vertex 93 7 0
      vertex 57 7 0
    endloop
  endfacet
  facet normal 0 -1 0
    outer loop
      vertex 7 43 0
      vertex 93 43 1
      vertex 7 43 1
    endloop
  endfacet
  facet normal 0 -1 -0
    outer loop
      vertex 93 43 1
      vertex 7 43 0
      vertex 93 43 0
    endloop
  endfacet
  facet normal 0.759257 -0.650791 0
    outer loop
      vertex 57 7 1
      vertex 75 28 0
      vertex 75 28 1
    endloop
  endfacet
  facet normal 0.759257 -0.650791 0
    outer loop
      vertex 75 28 0
      vertex 57 7 1
      vertex 57 7 0
    endloop
  endfacet
  facet normal 0 1 -0
    outer loop
      vertex 75 28 0
      vertex 25 28 1
      vertex 75 28 1
    endloop
  endfacet
  facet normal 0 1 0
    outer loop
      vertex 25 28 1
      vertex 75 28 0
      vertex 25 28 0
    endloop
  endfacet
  facet normal -0.759257 -0.650791 0
    outer loop
      vertex 43 7 0
      vertex 25 28 1
      vertex 25 28 0
    endloop
  endfacet
  facet normal -0.759257 -0.650791 0
    outer loop
      vertex 25 28 1
      vertex 43 7 0
      vertex 43 7 1
    endloop
  endfacet
endsolid OpenSCAD_Model
