<?xml version="1.0" encoding="UTF-8" standalone="no"?>
<!-- Created with Inkscape (http://www.inkscape.org/) -->

<svg
   version="1.1"
   id="svg2"
   width="1388.2288"
   height="432.76968"
   viewBox="0 0 1388.2288 432.7697"
   sodipodi:docname="kirby.svg"
   inkscape:version="1.2.2 (b0a8486541, 2022-12-01)"
   xmlns:inkscape="http://www.inkscape.org/namespaces/inkscape"
   xmlns:sodipodi="http://sodipodi.sourceforge.net/DTD/sodipodi-0.dtd"
   xmlns="http://www.w3.org/2000/svg"
   xmlns:svg="http://www.w3.org/2000/svg">
  <defs
     id="defs6" />
  <sodipodi:namedview
     id="namedview4"
     pagecolor="#ffffff"
     bordercolor="#000000"
     borderopacity="0.25"
     inkscape:showpageshadow="2"
     inkscape:pageopacity="0.0"
     inkscape:pagecheckerboard="0"
     inkscape:deskcolor="#d1d1d1"
     showgrid="false"
     showguides="true"
     inkscape:zoom="0.62651573"
     inkscape:cx="640.04778"
     inkscape:cy="86.989037"
     inkscape:window-width="1912"
     inkscape:window-height="1032"
     inkscape:window-x="4"
     inkscape:window-y="44"
     inkscape:window-maximized="1"
     inkscape:current-layer="g1736">
    <inkscape:grid
       type="xygrid"
       id="grid1586"
       originx="3.0732724e-06"
       originy="9.6023977e-06" />
    <sodipodi:guide
       position="647.83579,150.61124"
       orientation="0,-1"
       id="guide1668"
       inkscape:locked="false" />
    <sodipodi:guide
       position="769.33427,-213.66264"
       orientation="0,-1"
       id="guide1731"
       inkscape:locked="false" />
  </sodipodi:namedview>
  <g
     inkscape:groupmode="layer"
     inkscape:label="Image"
     id="g8">
    <g
       id="g1736"
       transform="matrix(1.2536947,0,0,1.2536947,-122.4551,-380.17917)">
      <path
         style="fill:#ffff00;stroke-width:0.32"
         d="m 927.5125,648.44245 c -27.18153,-0.35372 -54.34124,-2.55536 -81.25137,-6.37539 -17.33174,-2.75854 -34.61603,-6.38311 -51.22244,-12.1263 -10.22006,-3.81257 -19.23493,-10.42105 -26.30419,-18.69252 -14.67349,-16.40961 -24.15239,-36.54349 -33.49785,-56.25685 -15.39817,-33.66378 -26.59812,-69.04981 -36.43058,-104.68102 -3.44241,-11.49714 -8.70315,-23.55716 -19.35958,-30.08123 -9.65502,-5.95833 -21.45336,-5.69476 -32.39637,-5.78337 -10.87443,0.0996 -22.8783,1.85002 -30.79224,10.04385 -10.06933,9.89095 -13.72704,24.03154 -17.33237,37.20658 -8.96363,31.78302 -19.22884,63.31539 -33.19365,93.2914 -8.16309,17.57589 -16.89989,35.08354 -28.62414,50.59632 -8.30831,11.06904 -19.53204,20.13036 -32.69362,24.68792 -10.43852,3.54747 -21.25844,5.837 -31.99349,8.28142 -22.01416,4.53111 -44.45009,6.48909 -66.82893,8.19681 -21.52723,1.1631 -43.11556,1.42799 -64.66293,0.67233 -31.85572,-1.44099 -63.95458,-3.67552 -94.85455,-12.07027 -15.9674,-4.20771 -31.87735,-9.05255 -46.84939,-16.08296 -13.78075,-7.13919 -24.58104,-19.44425 -30.41225,-33.7781 -7.48522,-16.56769 -13.26219,-33.86097 -17.67883,-51.4878 -7.01506,-28.02847 -12.556,-56.41892 -17.12546,-84.94386 -2.02453,-12.27295 -3.49577,-24.63395 -5.33936,-36.92824 -2.2564,-10.71537 -9.45818,-20.45957 -19.61248,-24.86633 -3.61189,-2.10171 -8.99571,-2.71915 -10.636497,-7.08583 -1.543905,-4.70037 -0.124938,-9.70243 -0.62757,-14.53174 0.02127,-13.41134 -0.399605,-26.86058 0.546849,-40.24266 1.23327,-5.0931 7.070888,-6.56934 11.641308,-6.76035 15.65086,-1.9082 31.26574,-4.07073 46.9534,-5.66517 21.29209,-2.51518 42.62655,-4.72173 64.04433,-5.82761 46.59215,-3.40694 93.34366,-4.29663 140.04776,-3.75933 37.07452,1.07278 74.12416,3.9261 110.85347,9.1411 18.78523,2.77954 37.47409,6.39883 55.81872,11.329 11.0485,2.96895 21.68339,7.2645 31.9285,12.3265 17.41011,8.00956 34.67371,16.81837 53.33516,21.56694 10.22695,1.90225 20.69491,1.25444 31.04133,1.58939 13.97709,-0.0237 27.99264,0.10424 41.92986,-1.03389 8.79732,-1.46589 17.00626,-5.17547 25.26654,-8.39203 18.44373,-7.65691 36.01718,-17.39728 54.93985,-23.88358 16.68224,-5.33243 33.95771,-8.48402 51.13919,-11.71821 19.74007,-3.36801 39.69049,-5.2131 59.60138,-7.20666 25.96144,-2.64865 52.08458,-3.20104 78.16072,-3.63232 30.80077,-0.46157 61.60577,0.35024 92.36197,2.00293 25.4999,1.13483 50.9732,2.97831 76.3657,5.57884 24.0344,2.93121 48.1765,5.08203 72.1165,8.72353 3.8117,0.50221 7.5708,3.03008 8.149,7.07699 1.789,7.20141 0.4224,14.66962 0.8573,21.99072 0.01,10.55959 0.2541,21.15112 -0.8348,31.67204 -1.917,5.30111 -8.2841,5.58102 -12.4491,8.22942 -11.5947,5.67114 -18.6662,18.31478 -19.2073,30.99567 -3.7073,28.2299 -8.7739,56.27913 -14.6764,84.12926 -4.1464,19.26514 -8.2199,38.60607 -14.7109,57.25055 -3.8673,10.83234 -7.7972,21.71243 -13.0703,31.95206 -6.6162,12.27877 -17.0721,22.46408 -29.7679,28.32791 -12.1554,5.8157 -25.2978,9.09808 -38.1313,13.03264 -30.0012,8.40454 -61.1333,11.97307 -92.20574,13.06811 -14.0993,0.61995 -28.2123,0.91439 -42.32496,0.93339 z m 46.55747,-20.4946 c 14.51886,-1.23524 29.12903,-1.95039 43.43873,-4.88991 19.7523,-3.63405 39.4968,-8.42196 57.8391,-16.76762 15.3115,-6.93611 29.0986,-18.21709 36.7709,-33.39364 5.4027,-10.75737 9.3801,-22.18808 12.9014,-33.67924 4.2608,-15.1852 7.3459,-30.68938 9.9223,-46.23944 3.0134,-19.92315 5.3929,-39.96953 6.0761,-60.11979 0.948,-17.17062 2.0373,-34.85459 -3.4033,-51.45143 -3.018,-10.04252 -9.4591,-18.84212 -17.8852,-25.03773 -13.6978,-10.51954 -30.9225,-14.24076 -47.3875,-18.06725 -24.4266,-5.68473 -49.3934,-8.69309 -74.4099,-10.12087 -20.00573,-1.20901 -40.05835,-1.61623 -60.09441,-1.07395 -21.208,0.32819 -42.43602,1.19423 -63.49717,3.82844 -27.9973,2.96958 -56.04148,6.55265 -83.30081,13.80484 -16.67577,4.38329 -33.49658,9.49913 -48.2047,18.72841 -9.22302,6.0365 -15.61064,16.00912 -17.20836,26.91227 -1.50982,9.63681 -0.8412,19.44989 -0.37584,29.14112 1.69894,17.01833 5.45575,33.74967 9.17545,50.41674 7.75849,32.27497 18.68084,63.81117 32.63131,93.93296 7.41416,15.68538 17.6707,30.90818 32.93408,39.85748 20.80351,11.64288 44.42247,16.87391 67.77391,20.53131 27.71949,4.51278 55.89756,5.43415 83.93363,4.71995 7.46396,-0.14616 14.92763,-0.4371 22.37028,-1.03265 z m -579.5997,-0.3269 c 26.7563,-1.72107 53.55364,-5.25104 79.35398,-12.72747 14.66919,-4.51577 29.22285,-10.99193 40.45027,-21.69986 12.47224,-12.77461 19.81964,-29.38407 26.79824,-45.55582 14.87221,-35.94154 26.17389,-73.42951 32.53499,-111.83228 2.80757,-15.83402 3.74323,-32.13969 1.18241,-48.06837 -1.30161,-8.09483 -5.67095,-15.47373 -11.98829,-20.66148 -10.47318,-8.86869 -23.7201,-13.43536 -36.55744,-17.69309 -36.03611,-11.48343 -73.76512,-16.04007 -111.25518,-19.80476 -32.43834,-3.389 -65.11333,-3.06181 -97.67426,-2.31689 -15.90343,0.57431 -31.79085,1.75921 -47.60237,3.55466 -23.11871,3.09051 -46.19041,7.44413 -68.32943,14.89735 -13.52124,5.04119 -26.64002,13.4948 -33.36258,26.69358 -7.28271,14.29473 -7.51099,30.77254 -7.20009,46.45429 0.31566,33.38103 4.51561,66.65067 11.38131,99.29469 2.3984,12.59237 5.93861,24.94045 10.56271,36.8949 4.53714,12.90252 10.53657,25.7615 20.78261,35.15563 13.5532,12.4663 31.23633,19.07733 48.63393,24.19555 25.18539,7.44224 51.31871,11.33537 77.52407,12.58137 21.55275,1.50484 43.19071,2.03125 64.76512,0.638 z"
         id="path847"
         sodipodi:nodetypes="ssssssssssssssssssssssscssssssssssssssssscsssscssssssscsssssssssssssssssssssssssssssssssssssssscssssssssssssssssssssssssssssssssssssssssssssssssssssssssssssssssssssssssssssssssssssssssssssssssssssssssssssssssssssssssssssssssssssssssssssssssscscsssssssssssssssssssssssssssssssssssssssssssssssscssssssssssssssssscssssscsssssssssssssssssssssssssssssssssssssssssssssssssssscsssssscssssssssssscsssssscssssssssssssssssssssssssssssssssscsssssssssssssssssssssssssssssssssssssssssssssssssssssssssssssssssssssssssssssssssssssssssssssssssssssssssssssssssssssssssssssssssssssssssssssssssssssscsssssssssssssssssssssssssssssssssssssssssss" />
      <rect
         style="fill:#ff0000;stroke-width:8.30351;stroke-linecap:round;stroke-linejoin:round"
         id="rect1641"
         width="40.912975"
         height="40.912975"
         x="113.64859"
         y="332.77878"
         ry="2.9444942"
         transform="rotate(-0.18384384)" />
      <rect
         style="fill:#ff0000;stroke-width:8.30351;stroke-linecap:round;stroke-linejoin:round"
         id="rect1641-3"
         width="40.912975"
         height="40.912975"
         x="-1186.6675"
         y="334.84158"
         ry="2.9444942"
         transform="matrix(-0.9999981,0.00194788,0.00194788,0.9999981,0,0)" />
    </g>
  </g>
</svg>
